<?xml version="1.0" encoding="UTF-8" standalone="no"?><!DOCTYPE svg PUBLIC "-//W3C//DTD SVG 1.1//EN" "http://www.w3.org/Graphics/SVG/1.1/DTD/svg11.dtd"><svg width="100%" height="100%" viewBox="0 0 2048 2048" version="1.1" xmlns="http://www.w3.org/2000/svg" xmlns:xlink="http://www.w3.org/1999/xlink" xml:space="preserve" xmlns:serif="http://www.serif.com/" style="fill-rule:evenodd;clip-rule:evenodd;stroke-linejoin:round;stroke-miterlimit:2;"><path d="M2048,512l0,1024c0,282.58 -229.42,512 -512,512l-1024,0c-282.58,0 -512,-229.42 -512,-512l0,-1024c0,-282.58 229.42,-512 512,-512l1024,0c282.58,0 512,229.42 512,512Z" style="fill:#191210;"/><path d="M879.683,860.806c143.058,11.129 298.121,315.349 256.97,407.985l166.848,-94.994c-126.359,-21.941 -278.577,-278.03 -244.791,-432.343l-179.026,119.351Z" style="fill:#9f786a;"/><path d="M497.881,988.682c114.313,2.588 196.637,-65.147 252.707,-190.596c20.547,38.312 46.642,64.657 77.943,79.77c-100.376,42.269 -201.709,158.042 -183.898,219.216c19.004,65.27 325.044,150.759 471.314,137.619c-18.69,37.574 -24.708,75.737 -18.268,114.479c-133.408,-88.546 -426.934,-162.417 -521.247,-102.301l-78.552,-258.188Z" style="fill:#c7b0a8;"/><path d="M1302.283,1140.915c36.664,3.336 71.95,19.889 105.954,48.715c3.482,-125.403 62.07,-216.267 172.937,-259.406l-157.105,-84.033c15.523,120.469 -27.642,220.615 -121.787,294.724Z" style="fill:#c7b0a8;"/><g id="balls"><circle cx="916.219" cy="717.098" r="151.015" style="fill:#644a40;"/><circle cx="1279.752" cy="1325.422" r="156.496" style="fill:#644a40;"/><circle cx="1550.119" cy="798.086" r="141.881" style="fill:#644a40;"/><circle cx="497.881" cy="1131.781" r="141.881" style="fill:#644a40;"/></g></svg>