<?xml version="1.0" encoding="UTF-8" standalone="no"?><!DOCTYPE svg PUBLIC "-//W3C//DTD SVG 1.1//EN" "http://www.w3.org/Graphics/SVG/1.1/DTD/svg11.dtd"><svg width="100%" height="100%" viewBox="0 0 2048 2048" version="1.1" xmlns="http://www.w3.org/2000/svg" xmlns:xlink="http://www.w3.org/1999/xlink" xml:space="preserve" xmlns:serif="http://www.serif.com/" style="fill-rule:evenodd;clip-rule:evenodd;stroke-linejoin:round;stroke-miterlimit:2;"><path d="M802.771,773.834c219.299,17.061 457,483.409 393.918,625.415l255.767,-145.619c-193.7,-33.634 -427.04,-426.202 -375.249,-662.753l-274.436,182.957Z" style="fill:#9f786a;"/><path d="M217.495,969.86c175.234,3.968 301.431,-99.865 387.384,-292.171c31.497,58.73 71.499,99.115 119.482,122.283c-153.87,64.796 -309.207,242.268 -281.903,336.044c29.131,100.054 498.271,231.103 722.494,210.961c-28.651,57.599 -37.876,116.1 -28.004,175.49c-204.506,-135.735 -654.462,-248.974 -799.037,-156.82l-120.416,-395.785Z" style="fill:#c7b0a8;"/><path d="M1450.589,1203.223c56.204,5.114 110.294,30.488 162.421,74.676c5.338,-192.234 95.149,-331.523 265.101,-397.652l-240.831,-128.817c23.796,184.672 -42.373,338.188 -186.691,451.792Z" style="fill:#c7b0a8;"/><g id="balls"><circle cx="858.778" cy="553.539" r="231.497" style="fill:#644a40;"/><circle cx="1416.051" cy="1486.06" r="239.898" style="fill:#644a40;"/><circle cx="1830.505" cy="677.688" r="217.495" style="fill:#644a40;"/><circle cx="217.495" cy="1189.222" r="217.495" style="fill:#644a40;"/></g></svg>