<?xml version="1.0" encoding="UTF-8" standalone="no"?><!DOCTYPE svg PUBLIC "-//W3C//DTD SVG 1.1//EN" "http://www.w3.org/Graphics/SVG/1.1/DTD/svg11.dtd"><svg width="100%" height="100%" viewBox="0 0 2048 2048" version="1.1" xmlns="http://www.w3.org/2000/svg" xmlns:xlink="http://www.w3.org/1999/xlink" xml:space="preserve" xmlns:serif="http://www.serif.com/" style="fill-rule:evenodd;clip-rule:evenodd;stroke-linejoin:round;stroke-miterlimit:2;"><g id="logo-w--text-vertical" serif:id="logo w/ text vertical"><path d="M694.081,795.944c78.604,1.78 135.213,-44.796 173.768,-131.059c14.129,26.344 32.072,44.46 53.596,54.852c-69.021,29.065 -138.7,108.674 -126.453,150.739c13.067,44.881 223.508,103.666 324.088,94.63c-12.852,25.837 -16.99,52.079 -12.562,78.719c-91.735,-60.886 -293.571,-111.682 -358.423,-70.345l-54.015,-177.537Z" style="fill:#c7b0a8;"/><path d="M1247.208,900.623c25.211,2.294 49.474,13.676 72.857,33.497c2.395,-86.23 42.681,-148.711 118.916,-178.374l-108.029,-57.783c10.674,82.838 -19.007,151.701 -83.744,202.66Z" style="fill:#c7b0a8;"/><path d="M956.617,708.013c98.37,7.653 204.996,216.842 176.699,280.541l114.729,-65.32c-86.888,-15.087 -191.556,-191.181 -168.325,-297.29l-123.103,82.069Z" style="fill:#9f786a;"/><g id="balls"><circle cx="981.74" cy="609.196" r="103.842" style="fill:#644a40;"/><circle cx="1231.715" cy="1027.495" r="107.611" style="fill:#644a40;"/><circle cx="1417.626" cy="664.885" r="97.561" style="fill:#644a40;"/><circle cx="694.081" cy="894.343" r="97.561" style="fill:#644a40;"/></g><g transform="matrix(437.656898,0,0,437.656898,1520.532583,1536.662996)"></g><text x="531.103px" y="1536.663px" style="font-family:'Futura-Medium', 'Futura', sans-serif;font-weight:500;font-size:437.657px;fill:#271c19;">Ar<tspan x="1015.988px 1258.109px " y="1536.663px 1536.663px ">ea</tspan></text></g></svg>